<svg width="20" height="20" viewBox="0 0 20 20" fill="none" xmlns="http://www.w3.org/2000/svg">
<path d="M18.0928 16.9085L15.0012 13.8418C16.2012 12.3455 16.7824 10.4462 16.6252 8.53458C16.4679 6.62291 15.5842 4.84415 14.1558 3.56403C12.7273 2.28392 10.8627 1.59976 8.94524 1.65222C7.02784 1.70469 5.20341 2.4898 3.84709 3.84611C2.49078 5.20243 1.70567 7.02686 1.6532 8.94426C1.60073 10.8617 2.2849 12.7263 3.56501 14.1548C4.84513 15.5832 6.62389 16.4669 8.53556 16.6242C10.4472 16.7814 12.3465 16.2002 13.8428 15.0002L16.9095 18.0668C16.987 18.1449 17.0791 18.2069 17.1807 18.2492C17.2822 18.2915 17.3911 18.3133 17.5012 18.3133C17.6112 18.3133 17.7201 18.2915 17.8216 18.2492C17.9232 18.2069 18.0153 18.1449 18.0928 18.0668C18.243 17.9114 18.327 17.7038 18.327 17.4877C18.327 17.2715 18.243 17.0639 18.0928 16.9085ZM9.16781 15.0002C8.01408 15.0002 6.88627 14.658 5.92698 14.0171C4.96769 13.3761 4.22002 12.465 3.77851 11.3992C3.337 10.3333 3.22148 9.16036 3.44656 8.0288C3.67164 6.89725 4.22721 5.85784 5.04302 5.04204C5.85882 4.22623 6.89823 3.67066 8.02978 3.44558C9.16134 3.2205 10.3342 3.33602 11.4001 3.77753C12.466 4.21904 13.3771 4.96671 14.0181 5.926C14.659 6.88529 15.0012 8.0131 15.0012 9.16683C15.0012 10.7139 14.3866 12.1976 13.2926 13.2916C12.1986 14.3856 10.7149 15.0002 9.16781 15.0002Z" fill="#4D90FF"/>
</svg>
