<svg width="16" height="16" viewBox="0 0 16 16" fill="none" xmlns="http://www.w3.org/2000/svg">
<path d="M11.8047 5.13807C12.065 4.87772 12.065 4.45561 11.8047 4.19526C11.5443 3.93491 11.1222 3.93491 10.8619 4.19526L4.66663 10.3905L1.8047 7.5286C1.54435 7.26825 1.12224 7.26825 0.861888 7.5286C0.601539 7.78894 0.601539 8.21106 0.861888 8.4714L4.19523 11.8047C4.45557 12.0651 4.87768 12.0651 5.13803 11.8047L11.8047 5.13807ZM15.138 5.13807C15.3984 4.87772 15.3984 4.45561 15.138 4.19526C14.8777 3.93491 14.4555 3.93491 14.1952 4.19526L7.99682 10.3937C7.73513 10.1862 7.35373 10.2034 7.11189 10.4453C6.85154 10.7056 6.85154 11.1277 7.11189 11.3881L7.52856 11.8047C7.78891 12.0651 8.21102 12.0651 8.47137 11.8047L15.138 5.13807ZM5.5547 7.94526L5.13803 7.5286C4.87768 7.26825 4.45557 7.26825 4.19523 7.5286C3.93488 7.78894 3.93488 8.21106 4.19523 8.4714L4.61189 8.88807C4.87224 9.14842 5.29435 9.14842 5.5547 8.88807C5.81505 8.62772 5.81505 8.20561 5.5547 7.94526Z" fill="#359766"/>
<path d="M11.8047 5.13807C12.065 4.87772 12.065 4.45561 11.8047 4.19526C11.5443 3.93491 11.1222 3.93491 10.8619 4.19526L4.66663 10.3905L1.8047 7.5286C1.54435 7.26825 1.12224 7.26825 0.861888 7.5286C0.601539 7.78894 0.601539 8.21106 0.861888 8.4714L4.19523 11.8047C4.45557 12.0651 4.87768 12.0651 5.13803 11.8047L11.8047 5.13807ZM15.138 5.13807C15.3984 4.87772 15.3984 4.45561 15.138 4.19526C14.8777 3.93491 14.4555 3.93491 14.1952 4.19526L7.99682 10.3937C7.73513 10.1862 7.35373 10.2034 7.11189 10.4453C6.85154 10.7056 6.85154 11.1277 7.11189 11.3881L7.52856 11.8047C7.78891 12.0651 8.21102 12.0651 8.47137 11.8047L15.138 5.13807ZM5.5547 7.94526L5.13803 7.5286C4.87768 7.26825 4.45557 7.26825 4.19523 7.5286C3.93488 7.78894 3.93488 8.21106 4.19523 8.4714L4.61189 8.88807C4.87224 9.14842 5.29435 9.14842 5.5547 8.88807C5.81505 8.62772 5.81505 8.20561 5.5547 7.94526Z" fill="#359766"/>
<path d="M11.8047 5.13807C12.065 4.87772 12.065 4.45561 11.8047 4.19526C11.5443 3.93491 11.1222 3.93491 10.8619 4.19526L4.66663 10.3905L1.8047 7.5286C1.54435 7.26825 1.12224 7.26825 0.861888 7.5286C0.601539 7.78894 0.601539 8.21106 0.861888 8.4714L4.19523 11.8047C4.45557 12.0651 4.87768 12.0651 5.13803 11.8047L11.8047 5.13807ZM15.138 5.13807C15.3984 4.87772 15.3984 4.45561 15.138 4.19526C14.8777 3.93491 14.4555 3.93491 14.1952 4.19526L7.99682 10.3937C7.73513 10.1862 7.35373 10.2034 7.11189 10.4453C6.85154 10.7056 6.85154 11.1277 7.11189 11.3881L7.52856 11.8047C7.78891 12.0651 8.21102 12.0651 8.47137 11.8047L15.138 5.13807ZM5.5547 7.94526L5.13803 7.5286C4.87768 7.26825 4.45557 7.26825 4.19523 7.5286C3.93488 7.78894 3.93488 8.21106 4.19523 8.4714L4.61189 8.88807C4.87224 9.14842 5.29435 9.14842 5.5547 8.88807C5.81505 8.62772 5.81505 8.20561 5.5547 7.94526Z" fill="#359766"/>
</svg>
