<svg width="24" height="24" viewBox="0 0 24 24" fill="none" xmlns="http://www.w3.org/2000/svg">
<path d="M13 13V15C14.1046 15 15 14.1046 15 13H13ZM13 13H11C11 14.1046 11.8954 15 13 15V13ZM13 13V11C11.8954 11 11 11.8954 11 13H13ZM13 13H15C15 11.8954 14.1046 11 13 11V13Z" fill="black"/>
<path d="M13 6V8C14.1046 8 15 7.10457 15 6H13ZM13 6H11C11 7.10457 11.8954 8 13 8V6ZM13 6V4C11.8954 4 11 4.89543 11 6H13ZM13 6H15C15 4.89543 14.1046 4 13 4V6Z" fill="black"/>
<path d="M13 20V22C14.1046 22 15 21.1046 15 20H13ZM13 20H11C11 21.1046 11.8954 22 13 22V20ZM13 20V18C11.8954 18 11 18.8954 11 20H13ZM13 20H15C15 18.8954 14.1046 18 13 18V20Z" fill="black"/>
</svg>
