<svg width="24" height="24" viewBox="0 0 24 24" fill="none" xmlns="http://www.w3.org/2000/svg">
<path d="M18.5003 20.4997H18.0003H15.0003H14.5003V19.9997V16.9997C14.5003 16.3367 14.237 15.7008 13.7682 15.232C13.7682 15.232 13.7682 15.2319 13.7682 15.2319M18.5003 20.4997L9.00036 16.9997C9.00036 16.2041 9.31643 15.441 9.87904 14.8784C10.4416 14.3158 11.2047 13.9997 12.0004 13.9997C12.796 13.9997 13.559 14.3158 14.1217 14.8784L13.7682 15.2319M18.5003 20.4997V19.9997V11.9997V11.4997H18.0003H6.00036H5.50036V11.9997V19.9997V20.4997H6.00036H9.00036H9.50036V19.9997V16.9997C9.50036 16.3367 9.76375 15.7008 10.2326 15.2319C10.7014 14.7631 11.3373 14.4997 12.0004 14.4997C12.6634 14.4997 13.2992 14.7631 13.7682 15.2319M18.5003 20.4997L13.7682 15.2319M21.3281 10.6234L21.3291 10.6242C21.4056 10.6919 21.4595 10.7813 21.4836 10.8804L21.4836 10.8806C21.5078 10.9799 21.5009 11.084 21.4641 11.179L21.4638 11.1798C21.4276 11.2736 21.3639 11.3544 21.2809 11.4116C21.198 11.4686 21.1 11.4993 20.9994 11.4997H20.0003H19.5003V11.9997V20.9997C19.5003 21.1324 19.4477 21.2595 19.354 21.3531L19.3538 21.3533C19.2602 21.447 19.133 21.4997 19.0003 21.4997H5.00036C4.86769 21.4997 4.74057 21.447 4.64688 21.3533L4.64678 21.3532C4.55304 21.2595 4.50036 21.1324 4.50036 20.9997V11.9997V11.4997H4.00036H3.00128C2.90076 11.4993 2.80269 11.4686 2.71987 11.4116L2.43875 11.8201L2.71987 11.4116C2.63689 11.3545 2.5731 11.2737 2.53684 11.1797L2.53665 11.1792C2.49978 11.084 2.49296 10.9798 2.5171 10.8805L2.03126 10.7624L2.5171 10.8805C2.54123 10.7813 2.59516 10.6919 2.67166 10.6242L2.67254 10.6234L11.6704 2.62535C11.6707 2.62507 11.671 2.6248 11.6713 2.62453C11.7624 2.54488 11.8793 2.50098 12.0004 2.50098C12.1213 2.50098 12.2383 2.54487 12.3294 2.62454C12.3297 2.62481 12.33 2.62508 12.3303 2.62535L21.3281 10.6234ZM13.0003 20.4997H13.5003V19.9997V16.9997C13.5003 16.6019 13.3424 16.2204 13.061 15.939C12.7798 15.6578 12.3983 15.4997 12.0004 15.4997C11.6025 15.4997 11.221 15.6578 10.9397 15.939L10.9396 15.9391C10.6584 16.2204 10.5004 16.6018 10.5004 16.9997V19.9997V20.4997H11.0004H13.0003ZM5.29825 9.62594L4.31487 10.4997H5.63036H18.3703H19.6858L18.7024 9.62594L12.3325 3.96594L12.0004 3.67084L11.6683 3.96594L5.29825 9.62594Z" fill="black" stroke="#0061FF"/>
</svg>
