<svg width="32" height="32" viewBox="0 0 32 32" fill="none" xmlns="http://www.w3.org/2000/svg">
<path d="M24 17.5732V13.3332C23.9981 11.444 23.3276 9.61646 22.1075 8.1742C20.8873 6.73194 19.196 5.76803 17.3333 5.45317V3.99983C17.3333 3.64621 17.1928 3.30708 16.9428 3.05703C16.6927 2.80698 16.3536 2.6665 16 2.6665C15.6463 2.6665 15.3072 2.80698 15.0572 3.05703C14.8071 3.30708 14.6666 3.64621 14.6666 3.99983V5.45317C12.8039 5.76803 11.1127 6.73194 9.89249 8.1742C8.6723 9.61646 8.00189 11.444 7.99998 13.3332V17.5732C7.22191 17.8483 6.54797 18.3573 6.07056 19.0304C5.59315 19.7036 5.33563 20.5079 5.33331 21.3332V23.9998C5.33331 24.3535 5.47379 24.6926 5.72384 24.9426C5.97389 25.1927 6.31302 25.3332 6.66664 25.3332H10.8533C11.1604 26.463 11.8307 27.4604 12.7608 28.1715C13.6909 28.8826 14.8292 29.2678 16 29.2678C17.1708 29.2678 18.309 28.8826 19.2392 28.1715C20.1693 27.4604 20.8396 26.463 21.1466 25.3332H25.3333C25.6869 25.3332 26.0261 25.1927 26.2761 24.9426C26.5262 24.6926 26.6666 24.3535 26.6666 23.9998V21.3332C26.6643 20.5079 26.4068 19.7036 25.9294 19.0304C25.452 18.3573 24.778 17.8483 24 17.5732ZM10.6666 13.3332C10.6666 11.9187 11.2286 10.5621 12.2287 9.56193C13.2289 8.56174 14.5855 7.99983 16 7.99983C17.4145 7.99983 18.771 8.56174 19.7712 9.56193C20.7714 10.5621 21.3333 11.9187 21.3333 13.3332V17.3332H10.6666V13.3332ZM16 26.6665C15.5346 26.6637 15.0781 26.5391 14.6758 26.3052C14.2734 26.0713 13.9393 25.7362 13.7066 25.3332H18.2933C18.0606 25.7362 17.7265 26.0713 17.3242 26.3052C16.9219 26.5391 16.4653 26.6637 16 26.6665ZM24 22.6665H7.99998V21.3332C7.99998 20.9795 8.14045 20.6404 8.3905 20.3904C8.64055 20.1403 8.97969 19.9998 9.33331 19.9998H22.6666C23.0203 19.9998 23.3594 20.1403 23.6094 20.3904C23.8595 20.6404 24 20.9795 24 21.3332V22.6665Z" fill="#424C5D"/>
</svg>
